<?xml version="1.0" encoding="UTF-8"?>
<svg version="1.1" xmlns="http://www.w3.org/2000/svg" width="750" height="750">
<path d="M0 0 C20.79 0 41.58 0 63 0 C63 10.56 63 21.12 63 32 C73.23 32 83.46 32 94 32 C94 52.46 94 72.92 94 94 C104.56 94 115.12 94 126 94 C126 104.23 126 114.46 126 125 C135.82803025 124.96040272 135.82803025 124.96040272 145.65600586 124.90991211 C147.47950562 124.90616577 147.47950562 124.90616577 149.33984375 124.90234375 C150.59144287 124.89710693 151.84304199 124.89187012 153.13256836 124.88647461 C156 125 156 125 157 126 C157 136.23 157 146.46 157 157 C198.25 157 239.5 157 282 157 C282 167.23 282 177.46 282 188 C302.46 188 322.92 188 344 188 C344 177.77 344 167.54 344 157 C354.23 157 364.46 157 375 157 C375 146.44 375 135.88 375 125 C385.23 125 395.46 125 406 125 C406 104.54 406 84.08 406 63 C416.23 63 426.46 63 437 63 C437 52.77 437 42.54 437 32 C458.12 32 479.24 32 501 32 C501 42.23 501 52.46 501 63 C511.23 63 521.46 63 532 63 C532 83.79 532 104.58 532 126 C521.77 126 511.54 126 501 126 C501 136.23 501 146.46 501 157 C480.21 157 459.42 157 438 157 C438 167.56 438 178.12 438 189 C427.77 189 417.54 189 407 189 C407 199.23 407 209.46 407 220 C396.77 220 386.54 220 376 220 C376.00785522 225.62663696 376.00785522 225.62663696 376.01586914 231.36694336 C376.03240171 243.72828126 376.04352071 256.08961897 376.05181217 268.45096493 C376.05697511 275.94933064 376.06401776 283.44768591 376.07543945 290.94604492 C376.08538637 297.47930504 376.09185344 304.01255759 376.09408849 310.54582506 C376.09539559 314.00721807 376.09848136 317.46858942 376.10573006 320.92997551 C376.11374407 324.78787527 376.11399113 328.64575357 376.11352539 332.50366211 C376.11712067 333.65955841 376.12071594 334.81545471 376.12442017 336.00637817 C376.1230455 337.05110794 376.12167084 338.09583771 376.12025452 339.17222595 C376.12163721 340.54247122 376.12163721 340.54247122 376.12304783 341.94039822 C376 344 376 344 375 345 C372.70848583 345.08790975 370.41427476 345.10694038 368.12109375 345.09765625 C367.09110008 345.09553383 367.09110008 345.09553383 366.04029846 345.09336853 C363.83932199 345.08775479 361.63844591 345.07520007 359.4375 345.0625 C357.94856917 345.05748676 356.45963676 345.05292355 354.97070312 345.04882812 C351.31373195 345.03863021 347.65697883 345.01905779 344 345 C344 354.9 344 364.8 344 375 C346.22621094 374.98839844 348.45242188 374.97679687 350.74609375 374.96484375 C352.89396014 374.95705278 355.04182497 374.95097625 357.18969727 374.94506836 C358.68644918 374.94002879 360.18319616 374.93319713 361.67993164 374.92456055 C363.82699807 374.91247841 365.97399962 374.90676809 368.12109375 374.90234375 C369.4145874 374.89710693 370.70808105 374.89187012 372.04077148 374.88647461 C375 375 375 375 376 376 C376.08790975 378.29151417 376.10694038 380.58572524 376.09765625 382.87890625 C376.09515869 384.13517822 376.09266113 385.3914502 376.09008789 386.68579102 C376.07643188 389.09976196 376.07643188 389.09976196 376.0625 391.5625 C376.041875 396.656875 376.02125 401.75125 376 407 C386.23 407 396.46 407 407 407 C407 417.23 407 427.46 407 438 C438.02 438 469.04 438 501 438 C501 448.23 501 458.46 501 469 C511.23 469 521.46 469 532 469 C532 500.35 532 531.7 532 564 C521.77 564 511.54 564 501 564 C501.03959728 573.82803025 501.03959728 573.82803025 501.09008789 583.65600586 C501.09383423 585.47950562 501.09383423 585.47950562 501.09765625 587.33984375 C501.10289307 588.59144287 501.10812988 589.84304199 501.11352539 591.13256836 C501 594 501 594 500 595 C497.07805335 595.09525367 494.17979671 595.12552736 491.25756836 595.11352539 C489.88209587 595.11374443 489.88209587 595.11374443 488.47883606 595.1139679 C485.43248164 595.1132684 482.38618755 595.10547428 479.33984375 595.09765625 C477.23377007 595.0957922 475.12769597 595.09436824 473.0216217 595.09336853 C467.46657117 595.08954231 461.91154659 595.07971114 456.35650635 595.06866455 C450.6927526 595.05845267 445.02899467 595.05387139 439.36523438 595.04882812 C428.24347631 595.03808896 417.12174437 595.02049132 406 595 C406 584.77 406 574.54 406 564 C395.77 564 385.54 564 375 564 C375 532.98 375 501.96 375 470 C364.77 470 354.54 470 344 470 C344 459.77 344 449.54 344 439 C333.84286908 439.03959822 333.84286908 439.03959822 323.68579102 439.09008789 C322.42951904 439.09258545 321.17324707 439.09508301 319.87890625 439.09765625 C318.5854126 439.10289307 317.29191895 439.10812988 315.95922852 439.11352539 C313 439 313 439 312 438 C311.91209025 435.70848583 311.89305962 433.41427476 311.90234375 431.12109375 C311.90446617 430.09110008 311.90446617 430.09110008 311.90663147 429.04029846 C311.91224521 426.83932199 311.92479993 424.63844591 311.9375 422.4375 C311.94251324 420.94856917 311.94707645 419.45963676 311.95117188 417.97070312 C311.96136979 414.31373195 311.98094221 410.65697883 312 407 C302.1 407 292.2 407 282 407 C282 417.56 282 428.12 282 439 C269.76119342 439.02254946 257.52240053 439.04091418 245.28357792 439.05181217 C239.60123488 439.05704139 233.91890673 439.06413973 228.23657227 439.07543945 C222.75770864 439.08626696 217.27885938 439.09227654 211.79998589 439.09487724 C209.70470389 439.09673174 207.60942272 439.10035282 205.5141468 439.10573006 C202.59022416 439.11293868 199.66636167 439.11399102 196.74243164 439.11352539 C195.8670575 439.11712067 194.99168335 439.12071594 194.08978271 439.12442017 C188.11405216 439.11405216 188.11405216 439.11405216 187 438 C186.91209025 435.70848583 186.89305962 433.41427476 186.90234375 431.12109375 C186.90484131 429.86482178 186.90733887 428.6085498 186.90991211 427.31420898 C186.92356812 424.90023804 186.92356812 424.90023804 186.9375 422.4375 C186.958125 417.343125 186.97875 412.24875 187 407 C176.77 407 166.54 407 156 407 C156 396.77 156 386.54 156 376 C145.77 376 135.54 376 125 376 C125 365.77 125 355.54 125 345 C84.08 345 43.16 345 1 345 C1 355.23 1 365.46 1 376 C-30.35 376 -61.7 376 -94 376 C-94 365.77 -94 355.54 -94 345 C-104.23 345 -114.46 345 -125 345 C-125 313.65 -125 282.3 -125 250 C-114.77 250 -104.54 250 -94 250 C-94 239.77 -94 229.54 -94 219 C-62.65 219 -31.3 219 1 219 C1 229.23 1 239.46 1 250 C10.82803025 249.96040272 10.82803025 249.96040272 20.65600586 249.90991211 C22.47950562 249.90616577 22.47950562 249.90616577 24.33984375 249.90234375 C25.59144287 249.89710693 26.84304199 249.89187012 28.13256836 249.88647461 C31 250 31 250 32 251 C32 261.23 32 271.46 32 282 C52.46 282 72.92 282 94 282 C94 271.44 94 260.88 94 250 C104.23 250 114.46 250 125 250 C125 229.87 125 209.74 125 189 C114.77 189 104.54 189 94 189 C94 178.44 94 167.88 94 157 C83.44 157 72.88 157 62 157 C62 146.77 62 136.54 62 126 C41.54 126 21.08 126 0 126 C0 115.77 0 105.54 0 95 C-10.23 95 -20.46 95 -31 95 C-31 74.21 -31 53.42 -31 32 C-20.77 32 -10.54 32 0 32 C0 21.44 0 10.88 0 0 Z M188 251 C188 281.69 188 312.38 188 344 C218.69 344 249.38 344 281 344 C281 313.31 281 282.62 281 251 C250.31 251 219.62 251 188 251 Z " fill="#FFFFFF" transform="translate(156,93)"/>
</svg>
